
 
http://www.imdb.com/title/tt1659343/

PLOT INFO:
Under their own command

MEDIAINFO:
General
Complete name: Universal.Soldier.Day.Of.Reckoning.2012.HDRiP.AC3-2.0.XviD-AXED.avi
Format: AVI
Format/Info: Audio Video Interleave
File size: 1.35 GiB
Duration: 1h 53mn
Overall bit rate: 1 702 Kbps

Video
ID: 0
Format: MPEG-4 Visual
Format profile: Advanced Simple@L5
Format settings, BVOP: 2
Format settings, QPel: No
Format settings, GMC: No warppoints
Format settings, Matrix: Default (H.263)
Muxing mode: Packed bitstream
Codec ID: XVID
Codec ID/Hint: XviD
Duration: 1h 53mn
Bit rate: 1 502 Kbps
Width: 720 pixels
Height: 304 pixels
Display aspect ratio: 2.35:1
Frame rate: 23.976 fps
Color space: YUV
Chroma subsampling: 4:2:0
Bit depth: 8 bits
Scan type: Progressive
Compression mode: Lossy
Bits/(Pixel*Frame): 0.286
Stream size: 1.19 GiB (88%)
Writing library: XviD 64

Audio
ID: 1
Format: AC-3
Format/Info: Audio Coding 3
Mode extension: CM (complete main)
Format settings, Endianness: Big
Codec ID: 2000
Duration: 1h 53mn
Bit rate mode: Constant
Bit rate: 192 Kbps
Channel(s): 2 channels
Channel positions: Front: L R
Sampling rate: 48.0 KHz
Bit depth: 16 bits
Compression mode: Lossy
Stream size: 156 MiB (11%)
Alignment: Aligned on interleaves
Interleave, duration: 64 ms (1.53 video frames)
Interleave, preload duration: 192 ms
Title: unisol.dor

SOURCE:
720p wmv Digital VOD Rental

NOTES:
Here's the newest installment in the Universal Soldier series starring Van Damme & Dolph Lundgren following the events of the original and ReGeneration

AXED! - The only name to trust for VOD/HDRiP!

SCREENS: 
 
http://imageshack.us/a/img17/5965/scrncp00013.png 
http://imageshack.us/a/img37/1423/scrncp00017.png 
http://imageshack.us/a/img842/8049/scrncp00019.png 
http://imageshack.us/a/img51/2366/scrncp00036.png
